<?xml version="1.0" ?><!DOCTYPE svg  PUBLIC '-//W3C//DTD SVG 1.0//EN'  'http://www.w3.org/TR/2001/REC-SVG-20010904/DTD/svg10.dtd'><svg height="60px" style="shape-rendering:geometricPrecision; text-rendering:geometricPrecision; image-rendering:optimizeQuality; fill-rule:evenodd; clip-rule:evenodd" version="1.0" viewBox="0 0 64000 60119" width="64px" xml:space="preserve" xmlns="http://www.w3.org/2000/svg" xmlns:xlink="http://www.w3.org/1999/xlink"><defs><style type="text/css">
   <![CDATA[
    .fil0 {fill:#27afb7;fill-rule:nonzero}
   ]]>
  </style></defs><g id="Layer_x0020_1"><path class="fil0" d="M540 16431l31000 -16190 461 -241 461 241 31000 16190 540 281 0 601 0 3809 0 1000 -1000 0 -3993 0 0 33998 -7 0 0 1000 -53999 0 0 -1000 -6 0 0 -33998 -3961 0 -986 0 -9 -992 -33 -3809 -5 -609 540 -281zm32459 90l0 2683c0,411 -248,764 -604,918l29604 0 0 -2209 -29999 -15667 -29999 15667 20 2209 29581 0c-356,-154 -604,-507 -604,-918l0 -2637c-112,-24 -224,-51 -333,-84l-33 -11c-1088,-339 -2000,-1123 -2262,-2433 -107,-541 244,-1068 785,-1175 541,-107 1068,244 1175,785 93,471 443,768 865,906l48 14c209,63 437,93 666,92l6 0 6 -1 8 0 14 0 54 -2 14 0 12 0 2 0 83 -6c291,-25 567,-98 793,-211 280,-142 480,-351 480,-596 0,-208 -41,-344 -102,-425 -80,-110 -227,-183 -378,-228 -274,-83 -581,-78 -887,-73 -463,8 -931,17 -1501,-158l0 -1c-428,-131 -865,-354 -1215,-728l-60 -63c-372,-424 -622,-998 -622,-1768 0,-1096 655,-1907 1583,-2376 249,-125 518,-226 800,-299l0 -2168c0,-552 449,-1000 1000,-1000 552,0 1000,449 1000,1000l0 2122c111,22 222,52 330,84 1104,330 2035,1118 2300,2444 107,541 -244,1068 -785,1175 -541,107 -1068,-244 -1175,-785 -97,-488 -468,-789 -908,-920 -215,-64 -452,-93 -690,-91l-13 0 -6 0 -8 0 -14 1 -4 0 -11 0 -14 0 -111 7c-291,25 -567,98 -793,211 -280,142 -480,351 -480,595 0,223 50,366 122,448l25 30c84,80 207,137 333,176l4 1 0 -1c274,84 581,78 885,73 462,-8 927,-14 1496,158 508,154 1028,442 1401,946 304,409 501,939 501,1613 0,1097 -655,1909 -1583,2378 -249,125 -520,226 -801,299zm-32998 41597l63998 0 0 2001 -63998 0 0 -2001zm57005 -2998l0 -32998 -4022 0 0 32998 4022 0zm-6022 0l0 -32998 -1998 0 0 32998 1998 0zm-3999 0l0 -32998 -3999 0 0 32998 3999 0zm-6000 0l0 -32998 -17984 0 0 32998 17984 0zm-19985 0l0 -32998 -4014 0 0 32998 4014 0zm-6015 0l0 -32998 -1998 0 0 32998 1998 0zm-3999 0l0 -32998 -3990 0 0 32998 3990 0z"/></g></svg>